<svg height="257" viewBox="0 0 300 257" width="300" xmlns="http://www.w3.org/2000/svg"><g fill="none" fill-rule="evenodd" transform="translate(0 .512909)"><g fill="#38bdf9" fill-rule="nonzero" transform="translate(0 37.487091)"><path d="m286.722217 201.113384c-9.520671 10.186287-24.167624 18.71575-46.47363 17.822216-53.185172-2.117221-64.248587-63.231916-64.248587-63.231916l12.754966 6.818119c1.700662 1.026806 3.437767 2.050584 5.208278 3.047102 13.310718 7.093751 34.180273 14.205676 34.180273 14.205676 5.876395 11.416032 17.498599 20.511905 40.162959 2.314101 19.41488-15.580809 6.210454-37.610208-4.995695-50.783019l-4.342763-5.155237-12.278173-15.171904c-2.751429-4.440409-4.239508-7.629871-4.288098-7.732855-3.352734-8.9838022-3.908486-19.5335609 6.945383-26.245667l8.819148 7.990314-2.341448 2.6200233c-.570936 1.0843565-1.01736 2.5443002-.990028 4.4676699.719744 4.0739091 4.318467 10.2983578 14.613547 19.6516898l-.006074.003029s.069849.063607.13666.118128c1.068988.966228 2.216935 1.971833 3.431694 3.007726 5.672923 5.167353 16.645231 16.119959 21.892988 27.814653 12.715487 30.410444-1.567039 51.058651-8.1814 58.440151z"/><path d="m265.381515 165.524048s-11.942213 8.0629-33.688686 6.195223c-3.075014-.212581-6.237972-.677223-9.440353-1.36052-9.416092-1.90412-20.263552-5.645549-32.405914-12.293266l.006065-.006074c-9.309952-4.773966-17.755626-9.991315-24.242268-14.297603l-3.269097 4.348804c-8.154548-.674186-22.025468-11.740555-30.971514-19.645539 2.250158-20.538379-7.017339-58.0559213-7.017339-58.0559213.773302 13.9817682-1.510214 50.1479013-1.510214 50.1479013-.360874 7.133617-.946158 12.511921-1.616353 16.614738l.003033.003037c-.003033.006074-.003033.012148-.003033.024295-.764205 4.640344-1.628484 7.604333-2.435144 9.499342v.003037l-.02426.054664c-.272931.637743-.539796 1.16616-.791498 1.582211l-1.889284 3.780909c-6.547292 15.843372-10.735255 13.656822-10.735255 13.656822-6.7959619-1.700649-57.8672696-67.4337886-57.8672696-67.4337886-9.0794784 0-18.9231613-6.3561774-26.6986398-12.9461941-.6004465-.5010843-1.1675348-1.0021685-1.7315906-1.5002158-.4275906-.3796093-.843051-.7531448-1.2554789-1.1297172-10.47445503-9.669407-14.33490124-18.5188581-15.36293837-21.3340404-17.30074283-52.0611322 63.28038577-60.77088704 63.28038577-60.77088704 35.2534855-4.2516237 65.0271395 13.38957774 65.0271395 13.38957774 34.028332-6.69327041 55.301726 9.0043317 55.301726 9.0043317s46.798433 78.0324797 41.327699 132.8025037c-.24867 2.481126-.661098 4.980473-1.170568 7.485894 11.114325 2.839477 24.033022 4.005637 37.17916.531453 0 0 1.871089-.744034 2.386623-.185249.039424.063774.087945.103253.121303.185249.42759 1.21475-.506437 1.649023-.506437 1.649023z"/></g><g transform="matrix(-.94551858 -.32556815 -.32556815 .94551858 244.266148 37.11477)"><path d="m94.2323474 36.4949798 4.2660693 7.6734964 13.2943393 4.5775804c-11.8681385 13.3636649-26.6426539 22.2216176-44.3235466 26.5738581-27.379429 6.7395839-43.3584088 4.7387197-52.976945.0220692-7.48211009-3.6690093-7.86733898-13.0240781-1.1556866-28.0652065l35.549019-14.2897739z" fill="#000"/><path d="m110.806261 40.3399766-14.7944341-.706391v9.0569423c-12.106256 6.4450344-24.7322242 11.8711748-37.7460744 16.2217656-31.5141722 2.7751077-42.3060029-4.8816666-42.3060029-4.8816666v-11.7311369s22.0396542 16.2848363 76.6194645-9.1830836c1.1526486-.5297932 2.2799642-1.110043 3.4326128-1.6272222v-10.2174418c-.4454844-15.1934817-12.9451959-27.27821552-28.2082241-27.2717424h-23.5722968c-15.2581113 0-27.7502153 12.0831565-28.1955576 27.2717424v10.734621l-7.96720833 6.1556933c-.66198975.4143019-1.28516415.8871394-1.86197079 1.4127821-.43974943.3139497-.86255313.6507949-1.26664679 1.0091301-3.13704011 2.8199313-4.9312742 6.8288217-4.93992249 11.03736.00860759.8074611.08060368 1.6130157.21532996 2.409298.72686859 4.3908507 3.37729947 8.2321932 7.23255318 10.4823384v.1135272s35.96010246 22.3396166 106.39833086-24.080366c.012666.0126141 1.165315-5.4493023-3.039953-6.2061499z" fill="#38bdf9" fill-rule="nonzero"/></g></g></svg>